<?xml version="1.0" encoding="utf-8"?>
<!-- Generator: Adobe Illustrator 28.2.0, SVG Export Plug-In . SVG Version: 6.00 Build 0)  -->
<svg version="1.1" id="Layer_1" xmlns="http://www.w3.org/2000/svg" xmlns:xlink="http://www.w3.org/1999/xlink" x="0px" y="0px"
	 viewBox="0 0 335.1 218.5" style="enable-background:new 0 0 335.1 218.5;" xml:space="preserve">
<style type="text/css">
	.st0{fill:url(#SVGID_1_);}
	.st1{fill:url(#SVGID_00000172411652002749771650000006323462785694193823_);}
	.st2{fill:url(#SVGID_00000078018365238861662400000005731526902335401646_);}
	.st3{fill:url(#SVGID_00000001650341260061094910000004332267193393926284_);}
	.st4{fill:#F8DA67;}
	.st5{fill:#D69A28;}
	.st6{fill:url(#SVGID_00000052784613294820403650000008143007723236541833_);}
	.st7{fill:url(#SVGID_00000161594858044993326170000003726453167832553867_);}
	.st8{fill:url(#SVGID_00000116223685380737701040000002301370859558153649_);}
	.st9{fill:url(#SVGID_00000145022033392429633800000016096466013857970054_);}
	.st10{fill:url(#SVGID_00000052077470392515549080000009960963444527572870_);}
	.st11{fill:url(#SVGID_00000097487156847846036310000010522178735264143785_);}
	.st12{fill:url(#SVGID_00000034776874533546708240000003554485601101085097_);}
	.st13{fill:url(#SVGID_00000181802726917339641210000011987748267574871987_);}
</style>
<g>
	
		<radialGradient id="SVGID_1_" cx="131.4923" cy="124.6409" r="87.9037" gradientTransform="matrix(1 0 0 -1 0 257.8898)" gradientUnits="userSpaceOnUse">
		<stop  offset="0" style="stop-color:#006B5C"/>
		<stop  offset="0.5284" style="stop-color:#00594B"/>
		<stop  offset="1" style="stop-color:#004D41"/>
	</radialGradient>
	<path class="st0" d="M210.1,97.2h29.6l4.5-0.3c-34.2-22.1-86.8-16-151.8-13c-45.3,0.2-53.4,1.6-64.5,16.8
		c19.7-6.7,48.2-0.2,46.1,31c-0.1,1.1-0.3,2.3-0.7,3.3C68,150.1,57,161.1,43.4,160.1c-1.6-0.1-3.1-0.5-4.5-1.2
		c-9.7-4.4-14.6-13-5.6-24.5c-11.7,2.7-21.9,24.8-7.3,37.9c0.2,0.2,0.5,0.4,0.7,0.6c20.2,14.5,47.7,2.3,61.4-23.4
		c7.2-13.1,14.1-20.8,20.3-14.3v36l15.1,4.3v-78l48.7-0.3v18.7c-8.1-10-28-17.2-40.5,0.8c-6.1,11.5-0.5,22.1,10.1,22.8
		c12.2,0.2,15.9-13.9,5.5-15.4c6.5-4.4,17.6-4.8,25,7.5v15.1c-9.9-11.6-35.3-9.8-39.2,13c-0.7,4.2,0,8.6,2.2,12.3
		c6.7,11.1,21.6,10,26,4c11.8-12.6-6.1-24.7-12.8-14.9c-0.2-6.7,12.2-15.4,23.8-2c2.5,12,10.1,18.3,21.9,19.8
		c-4.8-3.5-8.1-10.9-7.2-29.8V97.9h8.4v55.8c-1.7,23,11,29,26.3,32c-7.3-5.6-13.4-13.4-11.6-34.5V97.2z M108.8,122.2
		c-5.5-9.2-15.3-4.4-17.4,1.2c-0.6-11.6-6-19.2-13.2-25.5h30.6V122.2z"/>
	
		<radialGradient id="SVGID_00000173155364976920085720000004654897398758536619_" cx="245.6953" cy="31.3196" r="38.6634" gradientTransform="matrix(1.1819 0 0 -1.2039 -28.64 183.4391)" gradientUnits="userSpaceOnUse">
		<stop  offset="0" style="stop-color:#006B5C"/>
		<stop  offset="0.5284" style="stop-color:#00594B"/>
		<stop  offset="1" style="stop-color:#004D41"/>
	</radialGradient>
	<path style="fill:url(#SVGID_00000173155364976920085720000004654897398758536619_);" d="M227.2,116.7c10.1-10.4,26.3,8,9.2,21.1
		c-7.2,3.7-14.2,4.6-21,1.4v13.3c14,4.6,38.6,26.8,57.4,31.7c15.1,5.2,27,6.2,37.1,4.7c-22-2.4-45.4-23.2-73.7-39.4
		c14.3-1.9,26.5-10.3,22.4-30.1c-3-15.1-22.5-22.4-36.8-13.8c-12.7,8.4-8.8,24-0.8,26.3C234.3,137.2,239.2,117.4,227.2,116.7z"/>
	<g>
		
			<radialGradient id="SVGID_00000163786586313286727370000018282356533447434905_" cx="277.0514" cy="70.2968" r="99.5133" gradientTransform="matrix(0.9636 -5.973542e-02 -6.009092e-02 -0.9694 -61.4094 278.1682)" gradientUnits="userSpaceOnUse">
			<stop  offset="0" style="stop-color:#006B5C"/>
			<stop  offset="0.5284" style="stop-color:#00594B"/>
			<stop  offset="1" style="stop-color:#004D41"/>
		</radialGradient>
		<path style="fill:url(#SVGID_00000163786586313286727370000018282356533447434905_);" d="M253.6,191.9
			c-32.5-13.2-47.5-3.2-65.2,2.4c-35.8,9.3-57.5-7.8-86.3-13.7c-27.8-4.1-38.1,12.3-34,26.3c1,3.3,3.2,6.1,6,8.1
			c15.6,10.6,36.4-3.7,37.8-22.9c28,16.6,46.5,20.7,78.4,7.4c0.7-0.3,1.3-0.5,2-0.8c36.2-12.4,32.5-2.4,72.2,7.5
			c0.4,0.1,0.7,0.2,1.1,0.4c27.3,8.4,54.5-8,69.5-27.4C310.1,199.8,282.7,202.4,253.6,191.9z M82.9,203.8c-3.1-1.2-5.2-4.2-5-7.5
			c0.4-7.8,12.2-11.7,21.5-9C98.1,197,91.7,207.3,82.9,203.8z"/>
		
			<radialGradient id="SVGID_00000028284644042866796520000011179930208828141744_" cx="349.0194" cy="63.7895" r="48.6137" gradientTransform="matrix(0.9636 -5.973542e-02 -6.009092e-02 -0.9694 -61.4094 278.1682)" gradientUnits="userSpaceOnUse">
			<stop  offset="0" style="stop-color:#C58E31"/>
			<stop  offset="0.1424" style="stop-color:#CF9B37"/>
			<stop  offset="0.4664" style="stop-color:#E3B443"/>
			<stop  offset="0.7617" style="stop-color:#EFC44A"/>
			<stop  offset="1" style="stop-color:#F3C94D"/>
		</radialGradient>
		<path style="fill:url(#SVGID_00000028284644042866796520000011179930208828141744_);" d="M335.1,179
			c-62.1,46.5-88.9-8.7-129.5,9.2l2.1,6c17.8-6.9,41.3,14.9,74.3,14.5C304.3,208.5,321.2,195.2,335.1,179z"/>
	</g>
	<g>
		<g>
			<path class="st4" d="M257.8,95.4C242.6,68,324.5,54,261.1,3.7C295.2,49.5,220.5,47.4,257.8,95.4z"/>
			<path class="st5" d="M261.1,3.7c48.9,47-25.8,52.5-3.3,91.7C250.4,66.9,321.4,48.2,261.1,3.7z"/>
		</g>
		
			<radialGradient id="SVGID_00000132075662336269617920000009039933284604699808_" cx="-153.5561" cy="286.3603" r="58.4069" gradientTransform="matrix(6.123234e-17 -1 -0.6 -3.673941e-17 420.4138 -73.6061)" gradientUnits="userSpaceOnUse">
			<stop  offset="0" style="stop-color:#006B5C"/>
			<stop  offset="0.5728" style="stop-color:#00695A"/>
			<stop  offset="0.7791" style="stop-color:#006254"/>
			<stop  offset="0.9257" style="stop-color:#00574A"/>
			<stop  offset="1" style="stop-color:#004D41"/>
		</radialGradient>
		<path style="fill:url(#SVGID_00000132075662336269617920000009039933284604699808_);" d="M257,0c13.6,34.8-58.8,35.9-14.7,86.9
			c19.3,20.5,35.5,44.4,15.2,73c25.3-35.8,4.6-50.8-9.6-73.6c-3.4-5.4-5.2-11.7-4.9-18.1C244.2,38,287.6,34.9,257,0z"/>
		<g>
			
				<radialGradient id="SVGID_00000089537099599141214270000013684204372657711764_" cx="119.1" cy="187.5865" r="88.2492" gradientTransform="matrix(1 0 0 -1 0 257.8898)" gradientUnits="userSpaceOnUse">
				<stop  offset="0" style="stop-color:#006B5C"/>
				<stop  offset="7.434362e-02" style="stop-color:#006153"/>
				<stop  offset="0.2209" style="stop-color:#005649"/>
				<stop  offset="0.4272" style="stop-color:#004F43"/>
				<stop  offset="1" style="stop-color:#004D41"/>
			</radialGradient>
			<path style="fill:url(#SVGID_00000089537099599141214270000013684204372657711764_);" d="M238.2,88.6
				C128.4-22.5,24.3,59.2,0,107.6C42.2,51.2,123.6,20.8,238.2,88.6z"/>
			
				<radialGradient id="SVGID_00000099637842901786580680000002801851899354027441_" cx="113.6" cy="180.229" r="77.6465" gradientTransform="matrix(1 0 0 -1 0 257.8898)" gradientUnits="userSpaceOnUse">
				<stop  offset="0" style="stop-color:#C58E31"/>
				<stop  offset="0.1424" style="stop-color:#CF9B37"/>
				<stop  offset="0.4664" style="stop-color:#E3B443"/>
				<stop  offset="0.7617" style="stop-color:#EFC44A"/>
				<stop  offset="1" style="stop-color:#F3C94D"/>
			</radialGradient>
			<path style="fill:url(#SVGID_00000099637842901786580680000002801851899354027441_);" d="M6.5,101.9
				c43.3-37,96.4-63.3,214.2-18.9C139.8,38.3,55.4,44,6.5,101.9z"/>
			
				<radialGradient id="SVGID_00000183957020194873156610000004455918686142145684_" cx="186.7" cy="206.3898" r="23.1284" gradientTransform="matrix(1 0 0 -1 0 257.8898)" gradientUnits="userSpaceOnUse">
				<stop  offset="0" style="stop-color:#C58E31"/>
				<stop  offset="0.1424" style="stop-color:#CF9B37"/>
				<stop  offset="0.4664" style="stop-color:#E3B443"/>
				<stop  offset="0.7617" style="stop-color:#EFC44A"/>
				<stop  offset="1" style="stop-color:#F3C94D"/>
			</radialGradient>
			<path style="fill:url(#SVGID_00000183957020194873156610000004455918686142145684_);" d="M158.4,35.1C183.3,39.7,201,53,215,67.9
				C196.2,52.4,177.3,41.5,158.4,35.1z"/>
		</g>
		
			<radialGradient id="SVGID_00000036227099816009150790000010634838976251728552_" cx="266.2968" cy="119.216" r="5.8629" gradientTransform="matrix(1 0 0 -1 0 257.8898)" gradientUnits="userSpaceOnUse">
			<stop  offset="0" style="stop-color:#006B5C"/>
			<stop  offset="7.434362e-02" style="stop-color:#006153"/>
			<stop  offset="0.2209" style="stop-color:#005649"/>
			<stop  offset="0.4272" style="stop-color:#004F43"/>
			<stop  offset="1" style="stop-color:#004D41"/>
		</radialGradient>
		<path style="fill:url(#SVGID_00000036227099816009150790000010634838976251728552_);" d="M266.2,140.4c0.1-3.5,0-7,0.2-10
			c0.2,1.7,0.4,3.4,0.4,5.1c0.1,2.9,0,5.8-0.4,8.5c-0.1,1-0.3,2-0.6,3c0.1-0.7,0.2-1.4,0.2-2.1C266.1,143.4,266.2,141.9,266.2,140.4
			z"/>
		
			<radialGradient id="SVGID_00000070115042715522030720000008760180763063540159_" cx="251.8868" cy="192.3398" r="47.1511" gradientTransform="matrix(1 0 0 -1 0 257.8898)" gradientUnits="userSpaceOnUse">
			<stop  offset="0" style="stop-color:#006B5C"/>
			<stop  offset="7.434362e-02" style="stop-color:#006153"/>
			<stop  offset="0.2209" style="stop-color:#005649"/>
			<stop  offset="0.4272" style="stop-color:#004F43"/>
			<stop  offset="1" style="stop-color:#004D41"/>
		</radialGradient>
		<path style="fill:url(#SVGID_00000070115042715522030720000008760180763063540159_);" d="M266.5,128.4c-0.1,0.6-0.1,1.3-0.2,2
			c-0.7-5.7-2.3-11.5-4.4-16.9l0,0c-0.2-0.5-0.4-1-0.6-1.5c-3.6-7.3-9.9-16.9-17.4-27.5c-1.1-1.6-2.1-3.3-3-5.1
			C220.2,35.6,278.2,37.8,258.6,2c-0.2-0.4-0.5-0.8-0.7-1.3c1.1,1.4,2.1,2.8,3,4.2l0,0c7.5,11.3,7.7,19.1,4.7,25.6l0,0
			c-5,10.7-18.6,17.9-21.6,31.8c-4.3,15.3,5.6,25.6,14,37.3c1.5,2,2.9,4.1,4.2,6.2c0.4,0.6,0.7,1.2,1,1.8c0.7,1.3,1.3,2.6,1.8,4
			c0.2,0.6,0.3,1.3,0.5,1.9c0,0.1,0,0.1,0,0.2c0.8,2.6,1.3,5.1,1.5,7.8c0,0.2,0,0.4,0,0.6c0,0.1,0,0.1,0,0.2c0,1.9-0.1,3.8-0.4,5.7
			C266.6,128.1,266.5,128.2,266.5,128.4z"/>
	</g>
	<g>
		
			<radialGradient id="SVGID_00000091711158728306986930000016743886919760323497_" cx="286.9" cy="205.0948" r="51.2393" gradientTransform="matrix(1 0 0 -1 0 257.8898)" gradientUnits="userSpaceOnUse">
			<stop  offset="0" style="stop-color:#006B5C"/>
			<stop  offset="7.434362e-02" style="stop-color:#006153"/>
			<stop  offset="0.2209" style="stop-color:#005649"/>
			<stop  offset="0.4272" style="stop-color:#004F43"/>
			<stop  offset="1" style="stop-color:#004D41"/>
		</radialGradient>
		<path style="fill:url(#SVGID_00000091711158728306986930000016743886919760323497_);" d="M286.9,98.8c0,0.2,0,0.4,0,0.6
			C286.9,99.2,286.9,99,286.9,98.8z"/>
		
			<radialGradient id="SVGID_00000178907359233370153730000001068473049515031465_" cx="286.9" cy="169.6093" r="7.9887" gradientTransform="matrix(1 0 0 -1 0 257.8898)" gradientUnits="userSpaceOnUse">
			<stop  offset="0" style="stop-color:#006B5C"/>
			<stop  offset="7.434362e-02" style="stop-color:#006153"/>
			<stop  offset="0.2209" style="stop-color:#005649"/>
			<stop  offset="0.4272" style="stop-color:#004F43"/>
			<stop  offset="1" style="stop-color:#004D41"/>
		</radialGradient>
		<path style="fill:url(#SVGID_00000178907359233370153730000001068473049515031465_);" d="M286.9,99.6c0-0.1,0-0.1,0-0.2
			C286.9,99.5,286.9,99.5,286.9,99.6L286.9,99.6z"/>
	</g>
</g>
</svg>
